<?xml version="1.0" encoding="iso-8859-1"?>
<!-- Generator: Adobe Illustrator 19.0.0, SVG Export Plug-In . SVG Version: 6.00 Build 0)  -->
<svg version="1.1" id="Capa_1" xmlns="http://www.w3.org/2000/svg" xmlns:xlink="http://www.w3.org/1999/xlink" x="0px" y="0px"
	 viewBox="0 0 60 60" style="enable-background:new 0 0 60 60;" xml:space="preserve">
<g>
	<path d="M7,3C4.794,3,3,4.794,3,7s1.794,4,4,4s4-1.794,4-4S9.206,3,7,3z M7,9C5.897,9,5,8.103,5,7s0.897-2,2-2s2,0.897,2,2
		S8.103,9,7,9z"/>
	<path d="M20,7c0-2.206-1.794-4-4-4s-4,1.794-4,4s1.794,4,4,4S20,9.206,20,7z M14,7c0-1.103,0.897-2,2-2s2,0.897,2,2s-0.897,2-2,2
		S14,8.103,14,7z"/>
	<path d="M25,11c2.206,0,4-1.794,4-4s-1.794-4-4-4s-4,1.794-4,4S22.794,11,25,11z M25,5c1.103,0,2,0.897,2,2s-0.897,2-2,2
		s-2-0.897-2-2S23.897,5,25,5z"/>
	<path d="M0,0v12v2v46h14h46V14V0H0z M2,2h56v10H14H2V2z M2,58V14h10v44H2z M58,58H14V14h44V58z"/>
	<path d="M9,18H5c-0.552,0-1,0.447-1,1s0.448,1,1,1h4c0.552,0,1-0.447,1-1S9.552,18,9,18z"/>
	<path d="M9,23H5c-0.552,0-1,0.447-1,1s0.448,1,1,1h4c0.552,0,1-0.447,1-1S9.552,23,9,23z"/>
	<path d="M9,28H5c-0.552,0-1,0.447-1,1s0.448,1,1,1h4c0.552,0,1-0.447,1-1S9.552,28,9,28z"/>
	<path d="M9,33H5c-0.552,0-1,0.447-1,1s0.448,1,1,1h4c0.552,0,1-0.447,1-1S9.552,33,9,33z"/>
	<path d="M9,38H5c-0.552,0-1,0.447-1,1s0.448,1,1,1h4c0.552,0,1-0.447,1-1S9.552,38,9,38z"/>
	<path d="M9,43H5c-0.552,0-1,0.447-1,1s0.448,1,1,1h4c0.552,0,1-0.447,1-1S9.552,43,9,43z"/>
	<path d="M9,48H5c-0.552,0-1,0.447-1,1s0.448,1,1,1h4c0.552,0,1-0.447,1-1S9.552,48,9,48z"/>
	<path d="M9,53H5c-0.552,0-1,0.447-1,1s0.448,1,1,1h4c0.552,0,1-0.447,1-1S9.552,53,9,53z"/>
	<path d="M34,18H18v16h16V18z M27,32c0-0.552-0.448-1-1-1s-1,0.448-1,1h-4c0-0.552-0.448-1-1-1v-4c0.552,0,1-0.448,1-1
		c0-0.552-0.448-1-1-1v-4c0.552,0,1-0.448,1-1h4c0,0.552,0.448,1,1,1s1-0.448,1-1h4c0,0.552,0.448,1,1,1v4c-0.552,0-1,0.448-1,1
		c0,0.552,0.448,1,1,1v4c-0.552,0-1,0.448-1,1H27z"/>
	<path d="M54,18H38v16h16V18z M52,32H40V20h12V32z"/>
	<path d="M34,54V38H18v16H34z M20,40h12v12H20V40z"/>
	<path d="M54,38H38v16h16V38z M52,52H40V40h12V52z"/>
	<circle cx="29" cy="23" r="1"/>
	<circle cx="26" cy="26" r="1"/>
	<circle cx="29" cy="29" r="1"/>
	<circle cx="23" cy="23" r="1"/>
	<circle cx="23" cy="29" r="1"/>
</g>
<g>
</g>
<g>
</g>
<g>
</g>
<g>
</g>
<g>
</g>
<g>
</g>
<g>
</g>
<g>
</g>
<g>
</g>
<g>
</g>
<g>
</g>
<g>
</g>
<g>
</g>
<g>
</g>
<g>
</g>
</svg>
