<?xml version="1.0"?>
<svg xmlns="http://www.w3.org/2000/svg" xmlns:xlink="http://www.w3.org/1999/xlink" version="1.1" id="Capa_1" x="0px" y="0px" width="512px" height="512px" viewBox="0 0 800 800" style="enable-background:new 0 0 800 800;" xml:space="preserve" class=""><g><g>
	<path d="M85.069,384.543v146.084h237.674V384.543H85.069z M207.292,487.529c-16.016,0-28.993-13.042-28.993-29.104   c0-16.072,12.977-29.103,28.993-29.103s28.993,13.029,28.993,29.103C236.285,474.487,223.308,487.529,207.292,487.529z M800,670H0   V555.809h800V670z M466.298,214.892c0-46.901,37.499-84.892,83.769-84.892c46.268,0,83.811,37.99,83.811,84.892   c0,46.911-37.543,84.881-83.811,84.881C503.797,299.772,466.298,261.803,466.298,214.892z M383.334,530.627   c6.185-88.912,28.385-149.962,68.164-185.646c8.441-7.603,17.383-14.557,27.104-20.314c5.557-3.284,11.458-5.932,17.49-8.106   c14.758-5.352,30.514-7.89,46.16-8.428L516.08,530.628h-43.599c2.214-50.844,4.558-98.998,5.925-126.639   c-19.186,26.498-31.402,69.608-35.872,126.639L383.334,530.627L383.334,530.627z M581.337,530.627l-20.899-222.166   c14.347,0.989,28.69,3.66,42.298,8.449c14.671,5.142,27.321,13.316,39.495,22.884c44.402,34.795,68.644,99.187,72.68,190.833   h-59.05c-2.821-56.975-14.495-99.942-34.158-126.595c2.496,30.959,6.425,82.231,8.833,126.595H581.337z" data-original="#000000" class="active-path" data-old_color="#8a8a8a" fill="#8a8a8a"/>
</g></g> </svg>
