<?xml version="1.0"?>
<svg xmlns="http://www.w3.org/2000/svg" xmlns:xlink="http://www.w3.org/1999/xlink" version="1.1" id="Capa_1" x="0px" y="0px" viewBox="0 0 512 512" style="enable-background:new 0 0 512 512;" xml:space="preserve" width="512px" height="512px" class=""><g><path style="fill:#F3F3F4" d="M314.182,418.909v-23.273h-93.091v23.273c0,12.8-10.473,23.273-23.273,23.273h-23.273  c-6.982,0-11.636,4.655-11.636,11.636l0,0c0,6.982,4.655,11.636,11.636,11.636h186.182c6.982,0,11.636-4.655,11.636-11.636l0,0  c0-6.982-4.655-11.636-11.636-11.636h-23.273C324.655,442.182,314.182,431.709,314.182,418.909z" data-original="#D5E3EF" class="" data-old_color="#F0F0F3"/><g>
	<path style="fill:#C9BEBE" d="M221.091,395.636v11.636h58.182c6.982,0,11.636,4.655,11.636,11.636l0,0   c0,6.982,4.655,11.636,11.636,11.636h5.818c3.491,0,5.818-2.327,5.818-5.818v-17.455v-11.636H221.091z" data-original="#B0C4D9" class="active-path" data-old_color="#CABFBF"/>
	<path style="fill:#C9BEBE" d="M360.727,465.455H174.545c-6.982,0-11.636-4.655-11.636-11.636h209.455   C372.364,460.8,367.709,465.455,360.727,465.455z" data-original="#B0C4D9" class="active-path" data-old_color="#CABFBF"/>
</g><path style="fill:#F3F3F4" d="M488.727,395.636H69.818c-12.8,0-23.273-10.473-23.273-23.273V69.818  c0-12.8,10.473-23.273,23.273-23.273h418.909c12.8,0,23.273,10.473,23.273,23.273v302.545  C512,385.164,501.527,395.636,488.727,395.636z" data-original="#D5E3EF" class="" data-old_color="#F0F0F3"/><g>
	<path style="fill:#000000" d="M512,325.818H46.545v-256c0-12.8,10.473-23.273,23.273-23.273h418.909   c12.8,0,23.273,10.473,23.273,23.273V325.818z" data-original="#595A66" class="" data-old_color="#010101"/>
	<circle style="fill:#000000" cx="267.636" cy="360.727" r="11.636" data-original="#595A66" class="" data-old_color="#010101"/>
</g><rect x="69.818" y="69.818" style="fill:#030303" width="418.909" height="232.727" data-original="#70B7E5" class="" data-old_color="#040405"/><path id="SVGCleanerId_0" style="fill:#000000" d="M139.636,465.455H23.273C10.473,465.455,0,454.982,0,442.182V209.455  c0-12.8,10.473-23.273,23.273-23.273h116.364c12.8,0,23.273,10.473,23.273,23.273v232.727  C162.909,454.982,152.436,465.455,139.636,465.455z" data-original="#595A66" class="" data-old_color="#010101"/><g>
	<path id="SVGCleanerId_0_1_" style="fill:#000000" d="M139.636,465.455H23.273C10.473,465.455,0,454.982,0,442.182V209.455   c0-12.8,10.473-23.273,23.273-23.273h116.364c12.8,0,23.273,10.473,23.273,23.273v232.727   C162.909,454.982,152.436,465.455,139.636,465.455z" data-original="#595A66" class="" data-old_color="#010101"/>
</g><path style="fill:#494A52;" d="M151.273,189.673v252.509c0,6.982-4.655,11.636-11.636,11.636H3.491  c3.491,6.982,11.636,11.636,19.782,11.636h116.364c12.8,0,23.273-10.473,23.273-23.273V209.455  C162.909,201.309,158.255,193.164,151.273,189.673z" data-original="#494A52" class=""/><rect x="23.273" y="232.727" style="fill:#030303" width="116.364" height="186.182" data-original="#70B7E5" class="" data-old_color="#040405"/><g>
	<circle style="fill:#35363E;" cx="81.455" cy="442.182" r="11.636" data-original="#35363E" class=""/>
	<path style="fill:#35363E;" d="M98.909,221.091H64c-3.491,0-5.818-2.327-5.818-5.818s2.327-5.818,5.818-5.818h34.909   c3.491,0,5.818,2.327,5.818,5.818S102.4,221.091,98.909,221.091z" data-original="#35363E" class=""/>
</g><g>
	<polygon style="fill:#EBEBEB" points="139.636,418.909 81.455,418.909 139.636,360.727  " data-original="#90CEF1" class="" data-old_color="#E8E9E9"/>
	<polygon style="fill:#EBEBEB" points="58.182,418.909 139.636,337.455 139.636,314.182 34.909,418.909  " data-original="#90CEF1" class="" data-old_color="#E8E9E9"/>
</g><rect x="23.273" y="232.727" style="fill:#070707" width="116.364" height="11.636" data-original="#4C9CD6" class="" data-old_color="#060505"/><path style="fill:#020000" d="M11.636,414.255c0,10.473-4.655,20.945-11.636,27.927l0,0V209.455l0,0  c6.982,6.982,11.636,17.455,11.636,27.927V414.255z" data-original="#6F707E" class="" data-old_color="#F0F0F0"/><g>
	<path style="fill:#EBEBEB" d="M465.455,290.909h-93.091l104.727-104.727v93.091C477.091,286.255,472.436,290.909,465.455,290.909z   " data-original="#90CEF1" class="" data-old_color="#E8E9E9"/>
	<polygon style="fill:#EBEBEB" points="337.455,290.909 477.091,151.273 477.091,116.364 302.545,290.909  " data-original="#90CEF1" class="" data-old_color="#E8E9E9"/>
</g><path style="fill:#020000" d="M109.382,58.182c-10.473,0-20.945-4.655-27.927-11.636l0,0h232.727l0,0  c-6.982,6.982-17.455,11.636-27.927,11.636H109.382z" data-original="#6F707E" class="" data-old_color="#F0F0F0"/><rect x="162.909" y="302.545" style="fill:#35363E;" width="23.273" height="23.273" data-original="#35363E" class=""/><rect x="162.909" y="325.818" style="fill:#C9BEBE" width="23.273" height="69.818" data-original="#B0C4D9" class="active-path" data-old_color="#CABFBF"/><path style="fill:#070707" d="M186.182,302.545h-23.273v-93.091l0,0c12.8,0,23.273,10.473,23.273,23.273V302.545z" data-original="#4C9CD6" class="" data-old_color="#060505"/></g> </svg>
